<?xml version="1.0" standalone="no"?><!DOCTYPE svg PUBLIC "-//W3C//DTD SVG 1.1//EN" "http://www.w3.org/Graphics/SVG/1.1/DTD/svg11.dtd"><svg t="1744452352997" class="icon" viewBox="0 0 1024 1024" version="1.1" xmlns="http://www.w3.org/2000/svg" p-id="9761" width="32" height="32" xmlns:xlink="http://www.w3.org/1999/xlink"><path d="M853.333333 128a42.666667 42.666667 0 0 1 42.666667 42.666667v682.666666a42.666667 42.666667 0 0 1-42.666667 42.666667H170.666667a42.666667 42.666667 0 0 1-42.666667-42.666667V170.666667a42.666667 42.666667 0 0 1 42.666667-42.666667h682.666666z m-375.936 433.408L213.333333 608V810.666667h307.968l-43.946666-249.258667h0.042666zM810.666667 213.333333h-308.010667l105.301333 597.333334H810.666667V213.333333zM416 213.333333H213.333333v307.968l249.258667-43.946666L416 213.333333z" fill="#09121F" p-id="9762"></path></svg>